<?xml version="1.0" encoding="UTF-8"?>
<!DOCTYPE svg PUBLIC "-//W3C//DTD SVG 1.1//EN" "http://www.w3.org/Graphics/SVG/1.1/DTD/svg11.dtd">
<!-- Creator: CorelDRAW X6 -->
<svg xmlns="http://www.w3.org/2000/svg" xml:space="preserve" width="158.144mm" height="158.144mm" version="1.1" style="shape-rendering:geometricPrecision; text-rendering:geometricPrecision; image-rendering:optimizeQuality; fill-rule:evenodd; clip-rule:evenodd"
viewBox="0 0 15814 15814"
 xmlns:xlink="http://www.w3.org/1999/xlink">
 <defs>
  <style type="text/css">
   <![CDATA[
    .str0 {stroke:#00A1F1;stroke-width:600}
    .fil6 {fill:none}
    .fil3 {fill:#00A1F1}
    .fil1 {fill:#333333}
    .fil4 {fill:#B3B3B3}
    .fil2 {fill:#FFA600}
    .fil0 {fill:white}
    .fil5 {fill:#00A1F1;fill-rule:nonzero}
   ]]>
  </style>
 </defs>
 <g id="Слой_x0020_1">
  <metadata id="CorelCorpID_0Corel-Layer"/>
  <circle class="fil0" cx="7907" cy="7907" r="7907"/>
  <path class="fil1" d="M12207 14528c-1237,805 -2714,1273 -4300,1273 -4359,0 -7893,-3534 -7893,-7894 0,-2470 1134,-4675 2911,-6123l499 695c-1562,1291 -2557,3244 -2557,5428 0,3888 3152,7040 7040,7040 1396,0 2698,-406 3792,-1107l508 688z"/>
  <path class="fil2" d="M12380 13344l513 683c1775,-1448 2908,-3651 2908,-6120 0,-717 -96,-1413 -275,-2073l-812 271c152,575 233,1179 233,1802 0,2190 -999,4146 -2567,5437z"/>
  <path class="fil3" d="M14446 5294l814 -265c-838,-2137 -2580,-3821 -4756,-4578l-232 823c1902,679 3427,2152 4174,4020z"/>
  <path class="fil4" d="M4113 1976l-510 -686c1238,-807 2716,-1276 4304,-1276 619,0 1221,71 1798,205l-238 822c-502,-114 -1024,-174 -1560,-174 -1397,0 -2699,407 -3794,1109z"/>
  <polygon class="fil5" points="3919,12410 4345,12410 4470,11628 4512,11628 4512,12410 5008,12410 5008,12208 4843,10781 4273,10781 4149,11423 4114,11423 3991,10781 3423,10781 3255,12208 3255,12410 3753,12410 3753,11628 3793,11628 "/>
  <polygon id="1" class="fil5" points="5383,11966 5383,12410 5891,12410 5891,11966 6289,10983 6289,10781 5781,10781 5656,11414 5618,11414 5495,10781 4985,10781 4985,10983 "/>
  <path id="2" class="fil5" d="M6563 11309l603 400 0 146 -790 0 0 555 1209 0c162,0 276,-114 276,-276l0 -504c0,-178 -35,-277 -187,-378l-603 -403 0 -102 682 0 108 -285 0 -273 -1206 0c-165,0 -279,114 -279,276l0 466c0,178 34,273 187,378z"/>
  <polygon id="3" class="fil5" points="8372,10747 8372,12410 9067,12410 9067,10747 9400,10747 9511,10465 9511,10189 7956,10189 7956,10747 "/>
  <path id="4" class="fil5" d="M10235 11407l63 -660 77 0 63 660 -203 0zm-476 -1218l-311 1945 0 276 692 0 44 -447 305 0 41 447 695 0 0 -276 -311 -1945 -1155 0z"/>
  <polygon id="5" class="fil5" points="11609,10747 11609,12410 12304,12410 12304,10747 12638,10747 12749,10465 12749,10189 11193,10189 11193,10747 "/>
  <rect class="fil2" x="3974" y="4090" width="2174" height="5009" rx="300" ry="312"/>
  <rect class="fil2" x="6796" y="1710" width="2187" height="7389" rx="300" ry="305"/>
  <rect class="fil2" x="9530" y="5097" width="2276" height="4002" rx="300" ry="288"/>
  <path class="fil3" d="M3662 8053c-486,0 -881,-394 -881,-881 0,-486 395,-880 881,-880 486,0 880,394 880,880 0,487 -394,881 -880,881zm0 -456c-234,0 -424,-190 -424,-425 0,-234 190,-424 424,-424 234,0 424,190 424,424 0,235 -190,425 -424,425z"/>
  <path class="fil3" d="M6472 7589c-486,0 -880,-394 -880,-880 0,-486 394,-880 880,-880 486,0 881,394 881,880 0,486 -395,880 -881,880zm0 -456c-234,0 -424,-190 -424,-424 0,-234 190,-424 424,-424 234,0 424,190 424,424 0,234 -190,424 -424,424z"/>
  <path class="fil3" d="M9269 8377c-486,0 -881,-394 -881,-880 0,-486 395,-881 881,-881 486,0 880,395 880,881 0,486 -394,880 -880,880zm0 -456c-235,0 -424,-190 -424,-424 0,-235 189,-424 424,-424 234,0 424,189 424,424 0,234 -190,424 -424,424z"/>
  <path class="fil3" d="M12125 6755c-486,0 -880,-394 -880,-880 0,-486 394,-881 880,-881 487,0 881,395 881,881 0,486 -394,880 -881,880zm0 -456c-234,0 -424,-190 -424,-424 0,-234 190,-424 424,-424 235,0 425,190 425,424 0,234 -190,424 -425,424z"/>
  <path class="fil6 str0" d="M11661 6267l-1747 953m-1287 141l-1517 -459m-1305 -141l-1517 317"/>
  <circle class="fil0" cx="3662" cy="7172" r="447"/>
  <circle class="fil0" cx="6472" cy="6709" r="447"/>
  <circle class="fil0" cx="9269" cy="7497" r="447"/>
  <circle class="fil0" cx="12125" cy="5875" r="447"/>
 </g>
</svg>
